<?xml version="1.0" encoding="iso-8859-1"?>
<!-- Generator: Adobe Illustrator 19.0.0, SVG Export Plug-In . SVG Version: 6.00 Build 0)  -->
<svg version="1.1" id="Capa_1" xmlns="http://www.w3.org/2000/svg" xmlns:xlink="http://www.w3.org/1999/xlink" x="0px" y="0px"
	 viewBox="0 0 511.999 511.999" style="enable-background:new 0 0 511.999 511.999;" xml:space="preserve">
<g>
	<g>
		<path d="M125.768,153.902c-69.22,0-125.535,56.315-125.535,125.535c0,42.977,20.444,89.185,60.765,137.341
			c5.991,7.155,11.961,13.785,17.69,19.834c-26.034,7.106-41.665,19.873-41.665,34.774c0,26.379,45.722,40.613,88.741,40.613
			c43.02,0,88.741-14.235,88.741-40.613c0-14.889-15.626-27.659-41.643-34.768c10.394-10.973,21.578-23.883,32.19-38.283
			c2.46-3.339,1.748-8.038-1.59-10.498c-3.336-2.457-8.038-1.747-10.498,1.591c-12.812,17.387-26.68,32.667-38.781,44.804
			c-1.387,0.708-2.547,1.832-3.274,3.249c-10.84,10.653-19.962,18.556-25.138,22.874c-5.119-4.276-14.102-12.072-24.803-22.586
			c-0.768-1.683-2.117-3.003-3.763-3.739c-34.007-34.205-81.957-93.301-81.957-154.591c0-60.94,49.579-110.519,110.519-110.519
			s110.519,49.579,110.519,110.519c0,26.613-9.068,55.353-26.952,85.422c-2.119,3.565-0.949,8.172,2.615,10.291
			s8.172,0.949,10.291-2.615c19.284-32.424,29.062-63.746,29.062-93.098C251.303,210.217,194.988,153.902,125.768,153.902z
			 M121.173,475.971c1.352,1.047,2.974,1.57,4.595,1.57c1.621,0,3.242-0.523,4.595-1.57c0.921-0.713,13.467-10.497,30.19-26.848
			c25.322,5.164,38.938,15.107,38.938,22.264c0,5.345-7.326,11.651-19.119,16.456c-14.464,5.895-33.857,9.142-54.607,9.142
			c-45.006,0-73.726-15.162-73.726-25.598c0-7.167,13.62-17.105,38.956-22.269C107.811,465.566,120.375,475.353,121.173,475.971z"/>
	</g>
</g>
<g>
	<g>
		<path d="M125.768,224.854c-11.875,0-23.167,3.749-32.655,10.842c-3.32,2.483-4,7.188-1.518,10.509
			c2.484,3.32,7.189,3.999,10.509,1.518c6.871-5.137,15.054-7.853,23.663-7.853c21.817,0,39.566,17.749,39.566,39.567
			c0,21.817-17.749,39.566-39.566,39.566s-39.566-17.75-39.566-39.566c0-3.723,0.515-7.404,1.53-10.938
			c1.144-3.985-1.159-8.143-5.144-9.288c-3.984-1.14-8.143,1.16-9.288,5.145c-1.401,4.883-2.112,9.956-2.112,15.081
			c0,30.096,24.485,54.582,54.582,54.582c30.096,0,54.582-24.485,54.582-54.582C180.35,249.34,155.864,224.854,125.768,224.854z"/>
	</g>
</g>
<g>
	<g>
		<path d="M452.958,218.121c3.82-4.099,7.755-8.515,11.701-13.229c31.258-37.333,47.107-73.222,47.107-106.673
			C511.766,44.062,467.705,0,413.547,0c-39.563,0-75.086,23.546-90.497,59.986c-1.616,3.819,0.171,8.225,3.989,9.839
			c3.818,1.614,8.225-0.171,9.839-3.989c13.058-30.872,43.152-50.821,76.669-50.821c45.879,0,83.204,37.326,83.204,83.205
			c0,62.043-65.138,121.484-83.207,136.775c-3.982-3.365-10.25-8.873-17.599-16.077c-0.733-1.453-1.917-2.605-3.339-3.318
			c-25.923-26.101-62.263-70.968-62.263-117.38c0-4.147-3.36-7.508-7.508-7.508c-4.146,0-7.508,3.361-7.508,7.508
			c0,33.45,15.849,69.339,47.108,106.673c3.945,4.711,7.877,9.125,11.695,13.223c-19.354,5.815-30.527,15.713-30.527,27.632
			c0,10.052,8.154,18.911,22.962,24.944c12.67,5.163,29.355,8.007,46.981,8.007c17.625,0,34.31-2.844,46.981-8.007
			c14.805-6.034,22.959-14.893,22.959-24.945C483.485,233.85,472.304,223.943,452.958,218.121z M413.545,263.682
			c-35.539,0-54.926-11.848-54.926-17.936c0-3.966,8.819-11.224,27.651-15.228c12.671,12.329,22.076,19.655,22.683,20.126
			c1.353,1.047,2.974,1.57,4.595,1.57c1.621,0,3.241-0.523,4.595-1.57c0.607-0.469,10.01-7.796,22.681-20.124
			c8.39,1.789,15.658,4.41,20.744,7.506c4.323,2.634,6.904,5.52,6.904,7.72C468.47,251.834,449.083,263.682,413.545,263.682z"/>
	</g>
</g>
<g>
	<g>
		<path d="M413.547,54.532c-24.089,0-43.688,19.598-43.688,43.689c0,24.089,19.598,43.687,43.688,43.687
			s43.688-19.597,43.688-43.687C457.235,74.131,437.637,54.532,413.547,54.532z M413.548,126.892
			c-15.812,0-28.673-12.862-28.673-28.672c0-15.81,12.862-28.673,28.673-28.673c15.81,0,28.673,12.862,28.673,28.673
			C442.22,114.03,429.358,126.892,413.548,126.892z"/>
	</g>
</g>
<g>
	<g>
		<path d="M316.157,238.239h-3.428c-2.496,0-5.004,0.165-7.458,0.492c-4.109,0.547-6.998,4.321-6.452,8.433
			c0.503,3.775,3.727,6.519,7.433,6.519c0.33,0,0.664-0.021,1-0.066c1.799-0.239,3.642-0.36,5.478-0.36h3.427v-0.001
			c4.147,0,7.508-3.36,7.508-7.508S320.304,238.239,316.157,238.239z"/>
	</g>
</g>
<g>
	<g>
		<path d="M291.336,463.496c-0.012,0-0.023,0-0.035,0l-9.916,0.045c-4.146,0.019-7.492,3.396-7.474,7.542
			c0.018,4.135,3.377,7.474,7.507,7.474c0.012,0,0.023,0,0.035,0l9.916-0.045c4.146-0.019,7.492-3.396,7.474-7.542
			C298.825,466.834,295.467,463.496,291.336,463.496z"/>
	</g>
</g>
<g>
	<g>
		<path d="M325.066,335.489h-9.916c-4.147,0-7.508,3.362-7.508,7.508c0,4.147,3.36,7.508,7.508,7.508h9.916
			c4.147,0,7.508-3.36,7.508-7.508C332.574,338.851,329.214,335.489,325.066,335.489z"/>
	</g>
</g>
<g>
	<g>
		<path d="M285.284,253.536c-2.811-3.046-7.559-3.238-10.609-0.428c-2.799,2.581-5.345,5.458-7.567,8.552
			c-2.419,3.369-1.649,8.06,1.719,10.479c1.325,0.952,2.857,1.41,4.374,1.41c2.335,0,4.637-1.087,6.104-3.129
			c1.63-2.269,3.498-4.381,5.551-6.275C287.904,261.334,288.095,256.584,285.284,253.536z"/>
	</g>
</g>
<g>
	<g>
		<path d="M331.002,463.314c-0.012,0-0.023,0-0.035,0l-9.915,0.045c-4.146,0.018-7.492,3.396-7.474,7.542
			c0.018,4.135,3.377,7.474,7.507,7.474c0.012,0,0.023,0,0.035,0l9.915-0.045c4.146-0.018,7.492-3.396,7.474-7.542
			C338.49,466.653,335.132,463.314,331.002,463.314z"/>
	</g>
</g>
<g>
	<g>
		<path d="M251.671,463.675c-0.012,0-0.023,0-0.035,0l-9.916,0.045c-4.146,0.019-7.492,3.396-7.474,7.542
			c0.019,4.135,3.375,7.474,7.507,7.474c0.012,0,0.023,0,0.035,0l9.916-0.045c4.146-0.019,7.492-3.396,7.474-7.542
			C259.16,467.013,255.802,463.675,251.671,463.675z"/>
	</g>
</g>
<g>
	<g>
		<path d="M290.829,329.178c-2.359-1.488-4.578-3.226-6.593-5.163c-2.989-2.875-7.743-2.78-10.616,0.206
			c-2.875,2.988-2.782,7.741,0.206,10.615c2.748,2.643,5.773,5.012,8.991,7.042c1.244,0.785,2.629,1.159,3.999,1.159
			c2.492,0,4.929-1.239,6.358-3.504C295.387,336.027,294.336,331.39,290.829,329.178z"/>
	</g>
</g>
<g>
	<g>
		<path d="M272.373,302.287c-0.504-2.588-0.76-5.25-0.76-7.914l0.002-0.417c0.049-4.146-3.273-7.546-7.42-7.594
			c-0.029-0.001-0.059-0.001-0.089-0.001c-4.106,0-7.458,3.304-7.506,7.421l-0.003,0.592c0,3.626,0.349,7.255,1.037,10.786
			c0.698,3.585,3.84,6.072,7.361,6.072c0.475,0,0.959-0.045,1.443-0.14C270.509,310.299,273.165,306.357,272.373,302.287z"/>
	</g>
</g>
<g>
	<g>
		<path d="M364.733,335.489h-9.916c-4.147,0-7.508,3.362-7.508,7.508c0,4.147,3.361,7.508,7.508,7.508h9.916
			c4.147,0,7.508-3.36,7.508-7.508C372.241,338.851,368.88,335.489,364.733,335.489z"/>
	</g>
</g>
<g>
	<g>
		<path d="M485.274,350.775c-2.893-2.283-5.985-4.357-9.192-6.162c-3.609-2.036-8.19-0.757-10.226,2.856
			c-2.035,3.612-0.757,8.192,2.856,10.226c2.53,1.427,4.972,3.063,7.255,4.866c1.38,1.089,3.018,1.616,4.648,1.616
			c2.218,0,4.416-0.98,5.898-2.856C489.083,358.066,488.529,353.344,485.274,350.775z"/>
	</g>
</g>
<g>
	<g>
		<path d="M457.405,468.694c-0.57-4.107-4.366-6.982-8.465-6.41c-2.459,0.34-4.977,0.519-7.488,0.529l-1.405,0.007
			c-4.147,0.021-7.492,3.399-7.472,7.544c0.021,4.134,3.378,7.472,7.507,7.472c0.013,0,0.025,0,0.037,0l1.402-0.007
			c3.171-0.014,6.359-0.239,9.474-0.67C455.104,476.591,457.973,472.8,457.405,468.694z"/>
	</g>
</g>
<g>
	<g>
		<path d="M490.54,447.581c-2.861-3.004-7.614-3.119-10.614-0.258c-2.107,2.007-4.387,3.865-6.778,5.523
			c-3.407,2.362-4.254,7.04-1.893,10.449c1.459,2.103,3.798,3.231,6.177,3.231c1.476,0,2.966-0.434,4.271-1.338
			c3.026-2.099,5.913-4.451,8.58-6.992C493.286,455.335,493.4,450.582,490.54,447.581z"/>
	</g>
</g>
<g>
	<g>
		<path d="M505.152,411.118c-4.069-0.767-7.999,1.913-8.767,5.988c-0.539,2.857-1.305,5.692-2.28,8.428
			c-1.392,3.905,0.645,8.2,4.551,9.593c0.833,0.297,1.685,0.438,2.522,0.438c3.084,0,5.976-1.916,7.072-4.988
			c1.237-3.47,2.21-7.067,2.893-10.692C511.908,415.81,509.226,411.884,505.152,411.118z"/>
	</g>
</g>
<g>
	<g>
		<path d="M509.612,386.984c-1.018-3.545-2.324-7.037-3.886-10.384c-1.754-3.758-6.218-5.382-9.979-3.63
			c-3.757,1.754-5.382,6.221-3.629,9.979c1.23,2.635,2.26,5.387,3.061,8.177c0.945,3.293,3.949,5.439,7.213,5.439
			c0.687,0,1.383-0.095,2.075-0.293C508.452,395.127,510.755,390.969,509.612,386.984z"/>
	</g>
</g>
<g>
	<g>
		<path d="M404.399,335.489h-9.916c-4.147,0-7.508,3.362-7.508,7.508c0,4.147,3.36,7.508,7.508,7.508h9.916
			c4.147,0,7.508-3.36,7.508-7.508C411.907,338.851,408.546,335.489,404.399,335.489z"/>
	</g>
</g>
<g>
	<g>
		<path d="M370.668,463.134c-0.012,0-0.023,0-0.035,0l-9.916,0.045c-4.146,0.018-7.492,3.396-7.474,7.542
			c0.019,4.135,3.377,7.474,7.507,7.474c0.012,0,0.023,0,0.035,0l9.916-0.045c4.146-0.019,7.492-3.396,7.474-7.542
			C378.157,466.473,374.798,463.134,370.668,463.134z"/>
	</g>
</g>
<g>
	<g>
		<path d="M444.395,335.561c-1.062-0.048-2.138-0.071-3.196-0.071h-7.051c-4.147,0-7.508,3.362-7.508,7.508
			c0,4.147,3.36,7.508,7.508,7.508h7.051v-0.001c0.849,0,1.693,0.019,2.532,0.056c0.113,0.006,0.226,0.008,0.338,0.008
			c3.993,0,7.317-3.146,7.494-7.175C451.746,339.25,448.537,335.744,444.395,335.561z"/>
	</g>
</g>
<g>
	<g>
		<path d="M410.333,462.955c-0.012,0-0.023,0-0.035,0L400.382,463c-4.146,0.018-7.492,3.396-7.474,7.542
			c0.019,4.135,3.377,7.474,7.507,7.474c0.012,0,0.024,0,0.035,0l9.916-0.045c4.146-0.019,7.492-3.396,7.474-7.542
			C417.822,466.293,414.464,462.955,410.333,462.955z"/>
	</g>
</g>
<g>
</g>
<g>
</g>
<g>
</g>
<g>
</g>
<g>
</g>
<g>
</g>
<g>
</g>
<g>
</g>
<g>
</g>
<g>
</g>
<g>
</g>
<g>
</g>
<g>
</g>
<g>
</g>
<g>
</g>
</svg>
